<svg xmlns="http://www.w3.org/2000/svg" viewBox="0 0 24 24" version="1.1"><path d="M20 2H4c-1.102 0-2 .898-2 2v16c0 1.102.898 2 2 2h16c1.102 0 2-.898 2-2V4c0-1.102-.898-2-2-2zM8.102 18H5V9.398h3.102zM6.5 8.398C5.602 8.398 5 7.801 5 7c0-.8.602-1.398 1.602-1.398.898 0 1.5.597 1.5 1.398 0 .8-.602 1.398-1.602 1.398zM19 18h-3.102v-4.7c0-1.3-.796-1.6-1.097-1.6-.301 0-1.301.198-1.301 1.6V18h-3.102V9.398H13.5v1.204c.398-.704 1.2-1.204 2.7-1.204 1.5 0 2.698 1.204 2.698 3.903V18z" style="fill:#ffffff;fill-opacity:1"/></svg>